<svg xmlns="http://www.w3.org/2000/svg" width="244" height="73" viewBox="0 0 244 73" version="1.1">
	<path d="M 0 36.504 L 0 73.008 122.250 72.754 L 244.500 72.500 244.762 36.250 L 245.025 0 122.512 0 L 0 0 0 36.504 M 0.452 37 C 0.452 57.075, 0.585 65.288, 0.749 55.250 C 0.912 45.213, 0.912 28.788, 0.749 18.750 C 0.585 8.713, 0.452 16.925, 0.452 37 M 61 35 L 61 62 91 62 L 121 62 121 35 L 121 8 91 8 L 61 8 61 35 M 8 21.500 C 8 22.632, 9.219 23, 12.969 23 L 17.938 23 18.219 35.250 C 18.451 45.347, 18.764 47.500, 20 47.500 C 21.236 47.500, 21.549 45.347, 21.781 35.250 L 22.062 23 27.031 23 C 30.781 23, 32 22.632, 32 21.500 C 32 20.250, 30 20, 20 20 C 10 20, 8 20.250, 8 21.500 M 39.321 21.613 C 32.215 25.118, 30.708 38.170, 36.716 44.178 C 40.570 48.031, 47.082 49.043, 51.922 46.540 C 58.079 43.356, 60.625 32.773, 56.904 25.821 C 54.135 20.646, 45.482 18.575, 39.321 21.613 M 70.198 21.673 C 66.021 23.732, 63.769 28.049, 63.769 34 C 63.769 40.134, 66.279 44.801, 70.534 46.579 C 74.476 48.226, 80.747 48.427, 84.435 47.025 C 86.827 46.115, 87 45.609, 87 39.525 L 87 33 81.917 33 C 76.179 33, 75.301 35.268, 80.827 35.813 C 83.784 36.105, 84 36.387, 84 39.956 C 84 44.097, 82.923 45, 77.983 45 C 71.207 45, 66.996 40.704, 67.004 33.800 C 67.013 25.537, 73.975 21.116, 82.008 24.271 C 85.757 25.744, 87 25.622, 87 23.782 C 87 22.412, 80.438 19.997, 76.782 20.023 C 74.977 20.035, 72.014 20.778, 70.198 21.673 M 98.763 21.565 C 90.654 25.965, 90.788 42.253, 98.967 46.483 C 105.188 49.700, 113.627 47.556, 116.483 42.033 C 118.433 38.262, 118.433 29.738, 116.483 25.967 C 113.633 20.456, 104.835 18.270, 98.763 21.565 M 124.468 21.222 C 124.175 21.986, 124.062 28.211, 124.218 35.055 L 124.500 47.500 133.250 47.789 C 140.585 48.031, 142 47.829, 142 46.539 C 142 45.301, 140.637 45, 135.031 45 L 128.062 45 127.781 32.832 C 127.582 24.196, 127.137 20.543, 126.251 20.249 C 125.563 20.020, 124.761 20.459, 124.468 21.222 M 146.436 21.305 C 146.161 22.023, 146.062 28.211, 146.218 35.055 L 146.500 47.500 153 47.771 C 161.021 48.105, 165.748 46.006, 168.248 41 C 171.818 33.855, 169.387 24.942, 163 21.752 C 158.717 19.612, 147.205 19.302, 146.436 21.305 M 176 34 L 176 48 185.083 48 C 191.904 48, 194.064 47.689, 193.753 46.750 C 193.487 45.944, 190.795 45.396, 186.170 45.206 L 179 44.912 179 39.956 L 179 35 186 35 C 191.556 35, 193 34.690, 193 33.500 C 193 32.310, 191.556 32, 186 32 L 179 32 179 27.544 L 179 23.088 186.170 22.794 C 190.795 22.604, 193.487 22.056, 193.753 21.250 C 194.064 20.311, 191.904 20, 185.083 20 L 176 20 176 34 M 199 34 C 199 45.639, 199.247 48, 200.467 48 C 201.653 48, 201.989 45.843, 202.217 36.750 L 202.500 25.500 210.928 36.774 C 215.563 42.975, 219.838 47.887, 220.428 47.691 C 222.053 47.149, 221.883 20.794, 220.250 20.250 C 219.300 19.933, 219 22.494, 219 30.917 C 219 37.013, 218.662 41.984, 218.250 41.963 C 217.838 41.943, 213.935 36.993, 209.578 30.963 C 205.221 24.934, 201.059 20, 200.328 20 C 199.287 20, 199 23.026, 199 34 M 41 24.293 C 37.857 25.881, 35.722 32.002, 36.628 36.831 C 38.067 44.504, 45.910 47.562, 51.598 42.669 C 53.790 40.784, 54.396 39.265, 54.774 34.713 C 55.207 29.486, 55.024 28.871, 52.197 26.043 C 48.879 22.725, 45.232 22.155, 41 24.293 M 99.306 25.413 C 96.795 27.573, 96.500 28.476, 96.500 34 C 96.500 39.524, 96.795 40.427, 99.306 42.587 C 104.631 47.167, 111.808 45.141, 114.023 38.432 C 117.650 27.442, 107.444 18.414, 99.306 25.413 M 149 34 L 149 45 154.577 45 C 159.408 45, 160.545 44.609, 163.077 42.077 C 165.551 39.602, 166 38.363, 166 34 C 166 29.637, 165.551 28.398, 163.077 25.923 C 160.545 23.391, 159.408 23, 154.577 23 L 149 23 149 34" stroke="none" fill="black" fill-rule="evenodd"/>
</svg>